<?xml version="1.0" encoding="UTF-8" standalone="no"?>
<svg
   version="1.0"
   width="320pt"
   height="320pt"
   viewBox="0 0 320 320"
   preserveAspectRatio="xMidYMid"
   id="svg68"
   sodipodi:docname="logo.svg"
   inkscape:version="1.2.2 (b0a8486541, 2022-12-01, custom)"
   xmlns:inkscape="http://www.inkscape.org/namespaces/inkscape"
   xmlns:sodipodi="http://sodipodi.sourceforge.net/DTD/sodipodi-0.dtd"
   xmlns="http://www.w3.org/2000/svg"
   xmlns:svg="http://www.w3.org/2000/svg">
  <defs
     id="defs72">
    <rect
       x="38.702103"
       y="324.70374"
       width="323.85938"
       height="90.687172"
       id="rect292" />
    <rect
       x="26.542543"
       y="331.09137"
       width="370.4938"
       height="103.50206"
       id="rect286" />
  </defs>
  <sodipodi:namedview
     id="namedview70"
     pagecolor="#ffffff"
     bordercolor="#000000"
     borderopacity="0.25"
     inkscape:showpageshadow="2"
     inkscape:pageopacity="0.0"
     inkscape:pagecheckerboard="0"
     inkscape:deskcolor="#d1d1d1"
     inkscape:document-units="pt"
     showgrid="false"
     inkscape:zoom="2.1697183"
     inkscape:cx="189.65596"
     inkscape:cy="237.58845"
     inkscape:window-width="3840"
     inkscape:window-height="2083"
     inkscape:window-x="0"
     inkscape:window-y="0"
     inkscape:window-maximized="1"
     inkscape:current-layer="text298-3" />
  <g
     transform="matrix(0.1,0,0,-0.1,10.409167,351.43936)"
     fill="#000000"
     stroke="none"
     id="g66">
    <path
       d="m 1291.6252,3356.4243 c -555.00003,-101 -933.00003,-637 -838.00003,-1191 28,-160 74,-275 167,-415 l 50,-75 117,-28 c 64,-16 206.00002,-50 316.00003,-76 110,-26 317,-76 460,-110 143,-34 275,-66 294,-70 l 34,-9 -6,48 -6,49 87,52 c 101,62 239,194 297,285 55,86 100,187 126,285 33,121 34,347 1,467 -28,102 -77,212 -131,292 -40,58 -41,61 -21,71 20,11 19,13 -21,61 -60,71 -191,173 -289,223 -88,46 -226,90 -318,101 -50,7 -54,9 -49,31 l 4,24 -101,-1 c -55,0 -133,-7 -173,-14 z m 362,-144 c 108,-22 221,-68 307,-123 57,-37 198,-163 198,-177 0,-3 -36,-28 -80,-55 l -80,-48 -53,48 c -104,94 -246,159 -379,173 -37,4 -70,9 -72,12 -6,5 30,164 40,180 7,12 16,11 119,-10 z m 578,-393 c 169,-268 186,-603 46,-884 -76,-152 -225,-309 -359,-379 l -46,-23 -99,24 c -77,18 -105,30 -122,49 -28,32 -28,37 -3,136 l 21,80 -65,108 c -36,59 -68,114 -71,122 -3,9 18,39 53,75 73,75 102,144 102,243 0,37 -7,89 -16,115 -10,28 -13,51 -7,57 12,12 516,327 526,328 4,1 22,-23 40,-51 z m -780,-210 c 90,-39 147,-130 147,-238 0,-152 -108,-260 -260,-260 -147,0 -260,109 -261,254 -2,130 70,227 192,260 62,17 113,13 182,-16 z"
       id="path18" />
    <path
       d="m 2523.6252,3106.4243 c -3,-27 -8,-55 -10,-61 -3,-12 -48,-23 -94,-25 l -26,-1 25,-8 c 14,-4 39,-8 56,-9 35,-1 39,-7 49,-76 8,-52 25,-44 25,12 0,50 9,63 44,64 17,1 42,4 56,8 20,6 15,8 -29,14 -59,7 -70,17 -72,62 0,17 -4,39 -8,50 -7,16 -10,9 -16,-30 z"
       id="path20" />
    <text
       xml:space="preserve"
       transform="matrix(7.5,0,0,-7.5,-104.09167,3514.3936)"
       id="text284"
       style="white-space:pre;shape-inside:url(#rect286);fill:#000000" />
    <text
       xml:space="preserve"
       transform="matrix(7.5,0,0,-7.5,-104.09167,3514.3936)"
       id="text290"
       style="white-space:pre;shape-inside:url(#rect292);fill:#000000" />
    <g
       aria-label="KEEN  ART"
       transform="scale(1,-1)"
       id="text298"
       style="font-size:400px;stroke-width:7.5">
      <path
         d="m 630.92145,-856.05261 v -256.05469 q 0,-5.2734 3.32031,-8.5937 3.51563,-3.3204 8.59375,-3.3204 5.27344,0 8.59375,3.5157 3.51563,3.3203 3.51563,8.3984 v 256.05469 q 0,5.27344 -3.51563,8.59375 -3.32031,3.32031 -8.59375,3.32031 -5.07812,0 -8.59375,-3.32031 -3.32031,-3.32031 -3.32031,-8.59375 z m 33.59375,-131.44531 q -3.51563,-3.71094 -3.51563,-8.59375 0,-5.07813 3.51563,-8.78903 l 116.40625,-116.4063 q 3.51562,-3.5156 8.59375,-3.5156 5.07812,0 8.59375,3.7109 3.71094,3.5157 3.71094,8.5938 0,4.8828 -3.71094,8.3984 L 681.7027,-987.69324 q -3.51563,3.51563 -8.59375,3.71094 -4.88281,0 -8.59375,-3.51562 z m 25.97656,25.39062 q -3.51562,-3.51562 -3.51562,-8.39844 0,-5.07812 3.51562,-8.59375 3.71094,-3.71093 8.59375,-3.71093 5.07813,0 8.59375,3.51562 l 114.45313,114.45313 q 3.51562,3.51562 3.51562,8.59375 0,5.07812 -3.51562,8.59375 -3.51563,3.51562 -8.59375,3.51562 -5.07813,0 -8.59375,-3.51562 z"
         style="font-family:Beon;-inkscape-font-specification:Beon"
         id="path276" />
      <path
         d="m 876.03864,-856.05261 v -256.05469 q 0,-5.2734 3.32031,-8.5937 3.51562,-3.3204 8.59375,-3.3204 5.27344,0 8.59375,3.5157 3.51562,3.3203 3.51562,8.3984 v 256.05469 q 0,5.27344 -3.51562,8.59375 -3.32031,3.32031 -8.59375,3.32031 -5.07813,0 -8.59375,-3.32031 -3.32031,-3.32031 -3.32031,-8.59375 z m 36.91406,8.59375 q -3.32031,-3.32031 -3.32031,-8.59375 0,-5.27344 3.32031,-8.59375 3.51562,-3.32031 8.78906,-3.32031 h 127.92964 q 5.2735,0 8.5938,3.32031 3.3203,3.32031 3.3203,8.59375 0,5.27344 -3.3203,8.59375 -3.3203,3.32031 -8.5938,3.32031 H 921.74176 q -5.27344,0 -8.78906,-3.32031 z m 0.78125,-137.5 q -3.32031,-3.51563 -3.32031,-8.59375 0,-5.27344 3.32031,-8.59379 3.51562,-3.5156 8.78906,-3.5156 H 1025.648 q 5.2734,0 8.5938,3.5156 3.3203,3.32035 3.3203,8.59379 0,5.07812 -3.3203,8.59375 -3.3204,3.32031 -8.5938,3.32031 H 922.52301 q -5.27344,0 -8.78906,-3.32031 z m 0,-118.35934 q -3.32031,-3.5157 -3.32031,-8.5938 0,-5.2734 3.32031,-8.5937 3.51562,-3.5157 8.78906,-3.5157 h 126.75779 q 5.2735,0 8.5938,3.5157 3.3203,3.3203 3.3203,8.5937 0,5.0781 -3.5156,8.5938 -3.3204,3.3203 -8.3985,3.3203 H 922.52301 q -5.27344,0 -8.78906,-3.3203 z"
         style="font-family:Beon;-inkscape-font-specification:Beon"
         id="path278" />
      <path
         d="m 1120.3746,-856.05261 v -256.05469 q 0,-5.2734 3.3203,-8.5937 3.5156,-3.3204 8.5937,-3.3204 5.2735,0 8.5938,3.5157 3.5156,3.3203 3.5156,8.3984 v 256.05469 q 0,5.27344 -3.5156,8.59375 -3.3203,3.32031 -8.5938,3.32031 -5.0781,0 -8.5937,-3.32031 -3.3203,-3.32031 -3.3203,-8.59375 z m 36.914,8.59375 q -3.3203,-3.32031 -3.3203,-8.59375 0,-5.27344 3.3203,-8.59375 3.5157,-3.32031 8.7891,-3.32031 h 127.9297 q 5.2734,0 8.5937,3.32031 3.3203,3.32031 3.3203,8.59375 0,5.27344 -3.3203,8.59375 -3.3203,3.32031 -8.5937,3.32031 h -127.9297 q -5.2734,0 -8.7891,-3.32031 z m 0.7813,-137.5 q -3.3203,-3.51563 -3.3203,-8.59375 0,-5.27344 3.3203,-8.59379 3.5156,-3.5156 8.789,-3.5156 h 103.125 q 5.2735,0 8.5938,3.5156 3.3203,3.32035 3.3203,8.59379 0,5.07812 -3.3203,8.59375 -3.3203,3.32031 -8.5938,3.32031 h -103.125 q -5.2734,0 -8.789,-3.32031 z m 0,-118.35934 q -3.3203,-3.5157 -3.3203,-8.5938 0,-5.2734 3.3203,-8.5937 3.5156,-3.5157 8.789,-3.5157 h 126.7579 q 5.2734,0 8.5937,3.5157 3.3203,3.3203 3.3203,8.5937 0,5.0781 -3.5156,8.5938 -3.3203,3.3203 -8.3984,3.3203 h -126.7579 q -5.2734,0 -8.789,-3.3203 z"
         style="font-family:Beon;-inkscape-font-specification:Beon"
         id="path280" />
      <path
         d="m 1365.1011,-856.05261 v -175.97659 q 0,-5.2734 3.3203,-8.5937 3.5157,-3.5156 8.5938,-3.5156 5.2734,0 8.5937,3.5156 3.5157,3.3203 3.5157,8.5937 v 175.97659 q 0,5.27344 -3.5157,8.59375 -3.3203,3.32031 -8.5937,3.32031 -5.0781,0 -8.5938,-3.32031 -3.3203,-3.32031 -3.3203,-8.59375 z m 0.3907,-258.20309 q 1.1718,-5.0782 5.0781,-7.8125 4.1015,-2.7344 8.9844,-1.5625 5.0781,1.1718 8.0078,5.2734 l 173.2422,255.85938 q 1.9531,2.73437 1.9531,6.05468 0,1.36719 -0.3906,2.92969 -1.1719,5.07813 -5.2735,7.8125 -2.7344,1.95313 -6.0547,1.95313 -1.3672,0 -2.9297,-0.39063 -5.0781,-1.17187 -7.8125,-5.07812 l -173.2421,-256.05473 q -1.9532,-2.7343 -1.9532,-6.0546 0,-1.3672 0.3907,-2.9297 z m 172.8515,178.12496 v -175.97656 q 0,-5.2734 3.3203,-8.5937 3.5157,-3.3204 8.5938,-3.3204 5.2734,0 8.5937,3.5157 3.5157,3.3203 3.5157,8.3984 v 175.97656 q 0,5.27344 -3.5157,8.78907 -3.3203,3.32031 -8.5937,3.32031 -5.0781,0 -8.5938,-3.32031 -3.3203,-3.51563 -3.3203,-8.78907 z"
         style="font-family:Beon;-inkscape-font-specification:Beon"
         id="path282" />
      <path
         d="m 1755.5308,-851.56042 q -0.7812,-2.34375 -0.7812,-4.49219 0,-2.34375 0.9765,-4.88281 l 88.8672,-207.03128 q 1.9531,-4.4922 6.6406,-6.25 4.8829,-1.7578 9.1797,0.1953 4.4922,1.9532 6.25,6.836 1.7578,4.6875 -0.1953,9.1797 l -88.6719,207.22653 q -1.9531,4.49218 -6.8359,6.05468 -2.3437,0.78125 -4.4922,0.97657 -2.3437,0 -4.6875,-1.17188 -4.4922,-1.75781 -6.25,-6.64062 z m 79.8828,-86.13282 q -3.3203,-3.51562 -3.3203,-8.59375 0,-5.27343 3.3203,-8.59375 3.5157,-3.51562 8.7891,-3.51562 h 63.8672 q 5.2734,0 8.5937,3.51562 3.5157,3.32032 3.5157,8.59375 0,5.07813 -3.5157,8.59375 -3.3203,3.32032 -8.5937,3.32032 h -63.8672 q -5.2734,0 -8.7891,-3.32032 z m 30.0782,-178.32026 q 1.7578,-4.8829 6.25,-6.836 2.3437,-0.9765 4.6875,-0.9765 2.1484,0 4.4921,0.7812 4.8829,1.7578 6.836,6.25 l 109.5703,255.85938 q 0.9766,2.34375 0.9766,4.88281 0,2.14844 -0.7813,4.49219 -1.7578,4.88281 -6.25,6.64062 -2.3437,0.97656 -4.6875,1.17188 -2.1484,0 -4.4922,-0.97657 -4.8828,-1.75781 -6.8359,-6.05468 l -109.5703,-256.05473 q -0.9766,-2.3437 -0.9766,-4.6875 0,-2.1484 0.7813,-4.4921 z"
         style="font-family:Beon;-inkscape-font-specification:Beon"
         id="path284" />
      <path
         d="m 2043.6168,-856.05261 v -256.05469 q 0,-5.2734 3.3203,-8.5937 3.5156,-3.3204 8.5937,-3.3204 5.2735,0 8.5938,3.5157 3.5156,3.3203 3.5156,8.3984 v 256.05469 q 0,5.27344 -3.5156,8.59375 -3.3203,3.32031 -8.5938,3.32031 -5.0781,0 -8.5937,-3.32031 -3.3203,-3.32031 -3.3203,-8.59375 z m 43.3593,-247.26559 q -3.3203,-3.5157 -3.3203,-8.5938 0,-5.2734 3.3203,-8.5937 3.5157,-3.5157 8.5938,-3.5157 h 63.2812 v 0.3907 q 34.375,0 54.4922,18.5547 20.3125,18.5546 20.3125,54.2968 0,34.7657 -20.1172,52.92971 -19.9218,18.16407 -53.9062,18.16407 h -61.5235 q -5.2734,0 -8.789,-3.32032 -3.3203,-3.51562 -3.3203,-8.59375 0,-5.27343 3.3203,-8.59371 3.5156,-3.5157 8.789,-3.5157 h 61.5235 q 50,0 50,-47.4609 0,-48.8281 -50.7813,-48.8281 h -63.2812 q -5.2735,0 -8.5938,-3.3203 z m 33.3985,155.2734 q -3.5157,-3.125 -3.5157,-8.20312 0,-5.07813 3.125,-8.59375 3.3204,-3.51563 8.2032,-3.51563 5.0781,0 8.5937,3.125 l 106.4453,100.78125 q 3.5157,3.125 3.5157,8.20313 0.1953,5.07812 -3.125,8.59375 -3.125,3.51562 -8.2032,3.51562 -4.8828,0 -8.5937,-3.125 z"
         style="font-family:Beon;-inkscape-font-specification:Beon"
         id="path286" />
      <path
         d="m 2280.9214,-1103.3182 q -3.3203,-3.5157 -3.3203,-8.5938 0,-5.2734 3.3203,-8.5937 3.5157,-3.5157 8.5938,-3.5157 h 187.6953 q 5.2734,0 8.5938,3.5157 3.3203,3.3203 3.3203,8.5937 0,5.0781 -3.3203,8.5938 -3.3204,3.3203 -8.5938,3.3203 h -187.6953 q -5.2734,0 -8.5938,-3.3203 z m 90.2344,247.26559 v -219.92189 q 0,-5.2734 3.3203,-8.5937 3.5157,-3.5157 8.5938,-3.5157 5.2734,0 8.5937,3.5157 3.5157,3.3203 3.5157,8.5937 v 219.92189 q 0,5.27344 -3.5157,8.59375 -3.3203,3.32031 -8.5937,3.32031 -5.0781,0 -8.5938,-3.32031 -3.3203,-3.32031 -3.3203,-8.59375 z"
         style="font-family:Beon;-inkscape-font-specification:Beon"
         id="path288" />
    </g>
    <g
       aria-label="technology"
       transform="scale(1,-1)"
       id="text298-3"
       style="font-size:280px;stroke-width:7.5">
      <path
         d="m 635.0332,-694.7547 q -2.32422,-2.46094 -2.32422,-6.01562 0,-3.69141 2.32422,-6.01563 2.46094,-2.46094 6.01563,-2.46094 h 131.38672 q 3.6914,0 6.01562,2.46094 2.32422,2.32422 2.32422,6.01563 0,3.55468 -2.32422,6.01562 -2.32422,2.32422 -6.01562,2.32422 H 641.04883 q -3.69141,0 -6.01563,-2.32422 z m 63.16407,173.08594 v -153.94531 q 0,-3.69141 2.32421,-6.01563 2.46094,-2.46094 6.01563,-2.46094 3.69141,0 6.01562,2.46094 2.46094,2.32422 2.46094,6.01563 v 153.94531 q 0,3.6914 -2.46094,6.01562 -2.32421,2.32422 -6.01562,2.32422 -3.55469,0 -6.01563,-2.32422 -2.32421,-2.32422 -2.32421,-6.01562 z"
         style="font-family:Beon;-inkscape-font-specification:Beon"
         id="path387" />
      <path
         d="m 810.99023,-521.66876 v -179.23828 q 0,-3.69141 2.32422,-6.01563 2.46094,-2.32422 6.01563,-2.32422 3.6914,0 6.01562,2.46094 2.46094,2.32422 2.46094,5.87891 v 179.23828 q 0,3.6914 -2.46094,6.01562 -2.32422,2.32422 -6.01562,2.32422 -3.55469,0 -6.01563,-2.32422 -2.32422,-2.32422 -2.32422,-6.01562 z m 25.83985,6.01562 q -2.32422,-2.32422 -2.32422,-6.01562 0,-3.69141 2.32422,-6.01563 2.46094,-2.32422 6.15234,-2.32422 h 89.55078 q 3.69141,0 6.01563,2.32422 2.32422,2.32422 2.32422,6.01563 0,3.6914 -2.32422,6.01562 -2.32422,2.32422 -6.01563,2.32422 h -89.55078 q -3.6914,0 -6.15234,-2.32422 z m 0.54687,-96.25 q -2.32422,-2.46093 -2.32422,-6.01562 0,-3.69141 2.32422,-6.01563 2.46094,-2.46093 6.15235,-2.46093 h 72.1875 q 3.6914,0 6.01562,2.46093 2.32422,2.32422 2.32422,6.01563 0,3.55469 -2.32422,6.01562 -2.32422,2.32422 -6.01562,2.32422 h -72.1875 q -3.69141,0 -6.15235,-2.32422 z m 0,-82.85156 q -2.32422,-2.46094 -2.32422,-6.01562 0,-3.69141 2.32422,-6.01563 2.46094,-2.46094 6.15235,-2.46094 h 88.73047 q 3.6914,0 6.01562,2.46094 2.32422,2.32422 2.32422,6.01563 0,3.55468 -2.46094,6.01562 -2.32422,2.32422 -5.8789,2.32422 H 843.5293 q -3.69141,0 -6.15235,-2.32422 z"
         style="font-family:Beon;-inkscape-font-specification:Beon"
         id="path389" />
      <path
         d="m 968.35352,-606.84454 v -3.55469 q 0,-21.875 7.79296,-41.15234 11.48438,-28.57422 35.54692,-44.29688 20.7812,-13.39844 45.664,-13.39844 24.8828,0 45.6641,13.39844 2.7344,1.91406 3.5547,5.46875 0.957,3.55469 -1.0938,6.42578 -1.914,2.73438 -5.4687,3.55469 -3.418,0.82031 -6.2891,-1.09375 -16.8164,-10.66406 -36.3672,-10.66406 -19.5508,0 -36.3672,10.66406 -19.5507,12.85156 -29.12106,36.91406 -6.69922,16.54297 -6.69922,34.45313 v 2.73437 q 0.82031,20.50781 9.4336,37.05078 9.57028,18.45703 26.38668,29.1211 16.8164,10.52734 36.6407,11.21093 h 1.0937 q 29.3945,0 50.4492,-21.05468 2.461,-2.46094 6.0157,-2.46094 3.5546,0 6.0156,2.46094 2.4609,2.46093 2.4609,6.01562 0,3.55469 -2.4609,6.01563 -25.7031,25.70312 -62.2071,25.70312 l -0.8203,-0.54687 h -1.0937 q -24.8828,-0.54688 -45.3906,-13.67188 -21.05473,-13.125 -32.12895,-35.27344 -10.39062,-20.23437 -11.21093,-44.02343 z"
         style="font-family:Beon;-inkscape-font-specification:Beon"
         id="path391" />
      <path
         d="m 1161.9473,-521.66876 v -179.23828 q 0,-3.69141 2.3242,-6.01563 2.4609,-2.32422 6.0156,-2.32422 3.6914,0 6.0156,2.46094 2.461,2.32422 2.461,5.87891 v 179.23828 q 0,3.6914 -2.461,6.01562 -2.3242,2.32422 -6.0156,2.32422 -3.5547,0 -6.0156,-2.32422 -2.3242,-2.32422 -2.3242,-6.01562 z m 26.3867,-90.23438 q -2.3242,-2.46093 -2.3242,-6.01562 0,-3.69141 2.3242,-6.01563 2.4609,-2.46093 6.1523,-2.46093 h 74.375 q 3.6914,0 6.0157,2.46093 2.4609,2.32422 2.4609,6.01563 0,3.55469 -2.4609,6.01562 -2.3243,2.32422 -6.0157,2.32422 h -74.375 q -3.6914,0 -6.1523,-2.32422 z m 95.7031,90.23438 v -179.23828 q 0,-3.69141 2.3242,-6.01563 2.461,-2.32422 6.0157,-2.32422 3.6914,0 6.0156,2.46094 2.4609,2.32422 2.4609,5.87891 v 179.23828 q 0,3.6914 -2.4609,6.01562 -2.3242,2.32422 -6.0156,2.32422 -3.5547,0 -6.0157,-2.32422 -2.3242,-2.32422 -2.3242,-6.01562 z"
         style="font-family:Beon;-inkscape-font-specification:Beon"
         id="path393" />
      <path
         d="m 1348.5684,-521.66876 v -123.1836 q 0,-3.6914 2.3242,-6.01562 2.4609,-2.46094 6.0156,-2.46094 3.6914,0 6.0156,2.46094 2.461,2.32422 2.461,6.01562 v 123.1836 q 0,3.6914 -2.461,6.01562 -2.3242,2.32422 -6.0156,2.32422 -3.5547,0 -6.0156,-2.32422 -2.3242,-2.32422 -2.3242,-6.01562 z m 0.2734,-180.74219 q 0.8203,-3.55469 3.5547,-5.46875 2.8711,-1.91406 6.289,-1.09375 3.5547,0.82031 5.6055,3.69141 l 121.2695,179.10156 q 1.3672,1.91406 1.3672,4.23828 0,0.95703 -0.2734,2.05078 -0.8203,3.55469 -3.6914,5.46875 -1.9141,1.36719 -4.2383,1.36719 -0.957,0 -2.0508,-0.27344 -3.5547,-0.82031 -5.4687,-3.55469 l -121.2696,-179.23828 q -1.3671,-1.91406 -1.3671,-4.23828 0,-0.95703 0.2734,-2.05078 z m 120.9961,124.6875 v -123.18359 q 0,-3.69141 2.3242,-6.01563 2.4609,-2.32422 6.0156,-2.32422 3.6914,0 6.0157,2.46094 2.4609,2.32422 2.4609,5.87891 v 123.18359 q 0,3.69141 -2.4609,6.15234 -2.3243,2.32422 -6.0157,2.32422 -3.5547,0 -6.0156,-2.32422 -2.3242,-2.46093 -2.3242,-6.15234 z"
         style="font-family:Beon;-inkscape-font-specification:Beon"
         id="path395" />
      <path
         d="m 1546.8105,-542.03986 q -26.3867,-28.84765 -26.3867,-69.17968 0,-40.33203 26.3867,-69.17969 26.5235,-28.84766 64.2579,-28.84766 37.8711,0 64.2578,28.84766 26.5234,28.84766 26.5234,69.17969 0,40.33203 -26.5234,69.17968 -26.3867,28.71094 -64.2578,28.71094 -37.7344,0 -64.2579,-28.71094 z m 11.7579,-126.73828 q -21.6016,23.65235 -21.6016,57.5586 0,33.76953 21.6016,57.55859 21.7382,23.65234 52.2265,23.65234 30.625,0 52.2266,-23.65234 21.7383,-23.78906 21.7383,-57.55859 0,-33.90625 -21.7383,-57.5586 -21.6016,-23.65234 -52.2266,-23.65234 -30.4883,0 -52.2265,23.65234 z"
         style="font-family:Beon;-inkscape-font-specification:Beon"
         id="path397" />
      <path
         d="m 1740.1309,-521.66876 v -179.23828 q 0,-3.69141 2.3242,-6.01563 2.4609,-2.32422 6.0156,-2.32422 3.6914,0 6.0156,2.46094 2.461,2.32422 2.461,5.87891 v 179.23828 q 0,3.6914 -2.461,6.01562 -2.3242,2.32422 -6.0156,2.32422 -3.5547,0 -6.0156,-2.32422 -2.3242,-2.32422 -2.3242,-6.01562 z m 30.3515,6.01562 q -2.3242,-2.32422 -2.3242,-6.01562 0,-3.69141 2.3242,-6.01563 2.461,-2.32422 6.0156,-2.32422 h 84.3555 q 3.6914,0 6.0156,2.32422 2.3243,2.32422 2.3243,6.01563 0,3.6914 -2.461,6.01562 -2.3242,2.32422 -5.8789,2.32422 h -84.3555 q -3.6914,0 -6.0156,-2.32422 z"
         style="font-family:Beon;-inkscape-font-specification:Beon"
         id="path399" />
      <path
         d="m 1909.252,-542.03986 q -26.3868,-28.84765 -26.3868,-69.17968 0,-40.33203 26.3868,-69.17969 26.5234,-28.84766 64.2578,-28.84766 37.8711,0 64.2578,28.84766 26.5234,28.84766 26.5234,69.17969 0,40.33203 -26.5234,69.17968 -26.3867,28.71094 -64.2578,28.71094 -37.7344,0 -64.2578,-28.71094 z m 11.7578,-126.73828 q -21.6016,23.65235 -21.6016,57.5586 0,33.76953 21.6016,57.55859 21.7382,23.65234 52.2265,23.65234 30.625,0 52.2266,-23.65234 21.7383,-23.78906 21.7383,-57.55859 0,-33.90625 -21.7383,-57.5586 -21.6016,-23.65234 -52.2266,-23.65234 -30.4883,0 -52.2265,23.65234 z"
         style="font-family:Beon;-inkscape-font-specification:Beon"
         id="path401" />
      <path
         d="m 2089.9941,-606.57111 v -1.64062 -1.64063 q 0,-6.97265 0.8204,-14.35546 0.8203,-6.97266 2.4609,-13.67188 1.7773,-6.69922 4.2383,-13.39844 4.2383,-9.57031 8.75,-16.8164 5.0586,-8.06641 11.7578,-15.17578 6.4258,-6.97266 14.7656,-12.57813 7.2461,-4.51172 14.2188,-7.24609 7.1093,-2.8711 15.4492,-4.51172 8.0664,-1.64063 15.8594,-1.64063 7.9296,0 16.1328,1.64063 8.3398,1.64062 15.3125,4.51172 7.1093,2.73437 14.3554,7.24609 2.7344,1.91406 3.5547,5.46875 0.9571,3.55469 -1.0937,6.42578 -1.9141,2.73438 -5.4688,3.55469 -3.4179,0.82031 -6.289,-1.09375 -5.0586,-3.14453 -11.4844,-5.87891 l 0.5469,-0.95703 q -5.0586,-2.1875 -12.3047,-3.55469 -6.9727,-1.36718 -12.5782,-1.36718 -5.6054,0 -12.5781,1.36718 -7.2461,1.36719 -12.3047,3.55469 -6.4257,2.73438 -11.4843,5.87891 -5.8789,3.6914 -12.0313,9.84375 -5.8789,6.42578 -9.8437,12.57812 -4.5118,7.2461 -7.2461,14.35547 -1.6407,4.51172 -3.6914,11.21094 -1.6407,5.87891 -2.461,11.75781 -0.8203,5.87891 -0.8203,11.75781 v 1.64063 1.64062 q 0.2734,6.42579 1.6406,12.57813 1.3672,6.69922 3.418,12.44141 2.1875,6.15234 4.9219,11.48437 3.1445,5.87891 7.1094,11.07422 4.2382,5.33203 9.1601,10.11719 5.0586,5.05859 10.1172,8.20312 5.0586,3.00781 11.4844,5.87891 5.0586,2.1875 12.3047,3.55469 6.9726,1.36718 12.5781,1.36718 8.0664,0 16.543,-2.1875 7.5195,-1.91406 15.1757,-6.42578 17.9102,-10.66406 21.7383,-29.39453 1.0938,-4.51172 1.2305,-11.21094 v -28.57422 q 0,-3.6914 2.3242,-6.01562 2.3242,-2.32422 6.0156,-2.32422 3.6914,0 6.0157,2.32422 2.3242,2.32422 2.3242,6.01562 v 28.30079 q 0,9.02343 -1.0938,14.76562 -5.6054,25.97656 -29.9414,40.60547 -9.0234,5.33203 -19.5508,8.47656 -9.5703,2.73438 -20.7812,2.73438 -8.0664,0 -15.9961,-1.64063 -6.9727,-1.36719 -15.3125,-4.78515 -6.9727,-2.73438 -14.3555,-7.2461 -6.1523,-3.96484 -12.5781,-9.84375 -5.8789,-5.60547 -10.9375,-11.75781 -4.7852,-5.87891 -8.6133,-13.39844 -3.1445,-6.42578 -5.8789,-13.94531 -2.7344,-7.79297 -3.9648,-14.90234 -1.0938,-7.65625 -1.6407,-15.17579 z m 66.7188,3.82813 q -2.3242,-2.59766 -2.3242,-6.28906 0,-3.69141 2.4609,-6.01563 2.5977,-2.32422 6.1524,-2.32422 l 53.0468,0.27344 q 3.6914,0 6.0157,2.46094 2.3242,2.46094 2.3242,6.15234 0,3.69141 -2.5977,6.15235 -2.4609,2.32421 -6.1523,2.32421 l -52.9102,-0.27343 q -3.6914,0 -6.0156,-2.46094 z"
         style="font-family:Beon;-inkscape-font-specification:Beon"
         id="path403" />
      <path
         d="m 2276.4785,-707.05939 q 2.3242,-2.05078 5.6055,-2.05078 0.1367,0 0.4101,0 3.5547,0.13672 5.7422,2.59766 l 76.4258,83.53515 q 2.1875,2.46094 2.0508,6.01563 -0.1367,3.41797 -2.7344,5.74219 -2.4609,2.1875 -6.0156,2.05078 -3.418,-0.13672 -5.6055,-2.59766 l -76.4258,-83.53515 q -2.0507,-2.32422 -2.1875,-5.60547 0,-3.82813 2.7344,-6.15235 z m 73.5547,185.39063 v -67.26563 q 0,-3.6914 2.3242,-6.01562 2.461,-2.32422 6.0156,-2.32422 3.6915,0 6.0157,2.46094 2.4609,2.32422 2.4609,5.8789 v 67.26563 q 0,3.6914 -2.4609,6.01562 -2.3242,2.32422 -6.0157,2.32422 -3.5546,0 -6.0156,-2.32422 -2.3242,-2.32422 -2.3242,-6.01562 z m 28.4375,-126.60156 q 0,-3.28125 2.0508,-5.60547 l 48.5351,-52.63672 q 2.1875,-2.46094 5.7422,-2.59766 0.2735,0 0.4102,0 3.2812,0 5.6055,2.05078 2.4609,2.1875 2.5976,5.74219 0,0.27344 0,0.41016 0,3.28125 -2.0508,5.60547 l -48.3984,52.63671 q -2.1875,2.46094 -5.7422,2.73438 -0.2734,0 -0.4102,0 -3.2812,0 -5.6054,-2.1875 -2.7344,-2.32422 -2.7344,-6.15234 z"
         style="font-family:Beon;-inkscape-font-specification:Beon"
         id="path405" />
    </g>
  </g>
</svg>
