<?xml version="1.0" encoding="UTF-8" standalone="no"?>
<svg
   version="1.0"
   width="320pt"
   height="320pt"
   viewBox="0 0 320 320"
   preserveAspectRatio="xMidYMid"
   id="svg68"
   sodipodi:docname="photo_2022-11-20_18-11-59.svg"
   inkscape:version="1.2.1 (8a69933317, 2022-10-28, custom)"
   xmlns:inkscape="http://www.inkscape.org/namespaces/inkscape"
   xmlns:sodipodi="http://sodipodi.sourceforge.net/DTD/sodipodi-0.dtd"
   xmlns="http://www.w3.org/2000/svg"
   xmlns:svg="http://www.w3.org/2000/svg">
  <defs
     id="defs72">
    <rect
       x="38.702103"
       y="324.70374"
       width="323.85938"
       height="90.687172"
       id="rect292" />
    <rect
       x="26.542543"
       y="331.09137"
       width="370.4938"
       height="103.50206"
       id="rect286" />
  </defs>
  <sodipodi:namedview
     id="namedview70"
     pagecolor="#ffffff"
     bordercolor="#000000"
     borderopacity="0.25"
     inkscape:showpageshadow="2"
     inkscape:pageopacity="0.0"
     inkscape:pagecheckerboard="0"
     inkscape:deskcolor="#d1d1d1"
     inkscape:document-units="pt"
     showgrid="false"
     inkscape:zoom="2.1697183"
     inkscape:cx="213.85265"
     inkscape:cy="236.66667"
     inkscape:window-width="3840"
     inkscape:window-height="2083"
     inkscape:window-x="0"
     inkscape:window-y="0"
     inkscape:window-maximized="1"
     inkscape:current-layer="g66" />
  <g
     transform="matrix(0.1,0,0,-0.1,10.409167,351.43936)"
     fill="#000000"
     stroke="none"
     id="g66">
    <path
       d="m 1291.6252,3356.4243 c -555.00003,-101 -933.00003,-637 -838.00003,-1191 28,-160 74,-275 167,-415 l 50,-75 117,-28 c 64,-16 206.00002,-50 316.00003,-76 110,-26 317,-76 460,-110 143,-34 275,-66 294,-70 l 34,-9 -6,48 -6,49 87,52 c 101,62 239,194 297,285 55,86 100,187 126,285 33,121 34,347 1,467 -28,102 -77,212 -131,292 -40,58 -41,61 -21,71 20,11 19,13 -21,61 -60,71 -191,173 -289,223 -88,46 -226,90 -318,101 -50,7 -54,9 -49,31 l 4,24 -101,-1 c -55,0 -133,-7 -173,-14 z m 362,-144 c 108,-22 221,-68 307,-123 57,-37 198,-163 198,-177 0,-3 -36,-28 -80,-55 l -80,-48 -53,48 c -104,94 -246,159 -379,173 -37,4 -70,9 -72,12 -6,5 30,164 40,180 7,12 16,11 119,-10 z m 578,-393 c 169,-268 186,-603 46,-884 -76,-152 -225,-309 -359,-379 l -46,-23 -99,24 c -77,18 -105,30 -122,49 -28,32 -28,37 -3,136 l 21,80 -65,108 c -36,59 -68,114 -71,122 -3,9 18,39 53,75 73,75 102,144 102,243 0,37 -7,89 -16,115 -10,28 -13,51 -7,57 12,12 516,327 526,328 4,1 22,-23 40,-51 z m -780,-210 c 90,-39 147,-130 147,-238 0,-152 -108,-260 -260,-260 -147,0 -260,109 -261,254 -2,130 70,227 192,260 62,17 113,13 182,-16 z"
       id="path18" />
    <path
       d="m 2523.6252,3106.4243 c -3,-27 -8,-55 -10,-61 -3,-12 -48,-23 -94,-25 l -26,-1 25,-8 c 14,-4 39,-8 56,-9 35,-1 39,-7 49,-76 8,-52 25,-44 25,12 0,50 9,63 44,64 17,1 42,4 56,8 20,6 15,8 -29,14 -59,7 -70,17 -72,62 0,17 -4,39 -8,50 -7,16 -10,9 -16,-30 z"
       id="path20" />
    <text
       xml:space="preserve"
       transform="matrix(7.5,0,0,-7.5,-104.09167,3514.3936)"
       id="text284"
       style="white-space:pre;shape-inside:url(#rect286);fill:#000000" />
    <text
       xml:space="preserve"
       transform="matrix(7.5,0,0,-7.5,-104.09167,3514.3936)"
       id="text290"
       style="white-space:pre;shape-inside:url(#rect292);fill:#000000" />
    <text
       xml:space="preserve"
       style="font-size:400px;fill:#000000;stroke-width:7.5"
       x="596.93707"
       y="-856.05261"
       id="text298"
       transform="scale(1,-1)"><tspan
         sodipodi:role="line"
         id="tspan296"
         style="font-style:normal;font-variant:normal;font-weight:normal;font-stretch:normal;font-size:400px;font-family:Beon;-inkscape-font-specification:Beon;stroke-width:7.5"
         x="596.93707"
         y="-856.05261">KEEN  ART</tspan></text>
    <text
       xml:space="preserve"
       style="font-size:280px;fill:#000000;stroke-width:7.5"
       x="626.83008"
       y="-521.66876"
       id="text298-3"
       transform="scale(1,-1)"><tspan
         sodipodi:role="line"
         id="tspan296-1"
         style="font-style:normal;font-variant:normal;font-weight:normal;font-stretch:normal;font-size:280px;font-family:Beon;-inkscape-font-specification:Beon;stroke-width:7.5"
         x="626.83008"
         y="-521.66876">technology</tspan></text>
  </g>
</svg>
